<?xml version="1.0" standalone="no"?>
<!DOCTYPE svg PUBLIC "-//W3C//DTD SVG 20010904//EN"
 "http://www.w3.org/TR/2001/REC-SVG-20010904/DTD/svg10.dtd">
<svg version="1.0" xmlns="http://www.w3.org/2000/svg"
 width="119.000000pt" height="119.000000pt" viewBox="0 0 119.000000 119.000000"
 preserveAspectRatio="xMidYMid meet">
<metadata>
Created by potrace 1.11, written by Peter Selinger 2001-2013
</metadata>
<g transform="translate(0.000000,119.000000) scale(0.100000,-0.100000)"
fill="#000000" stroke="none">
<path d="M797 1102 l-138 -36 3 -30 c3 -29 6 -31 57 -39 30 -4 56 -9 58 -10 8
-9 15 -552 8 -689 l-7 -157 -32 -6 c-64 -13 -66 -15 -66 -51 l0 -34 195 0 195
0 0 34 c0 36 -2 38 -67 51 l-31 6 -7 125 c-4 69 -4 288 0 487 6 345 6 363 -12
373 -14 8 -49 3 -156 -24z"/>
<path d="M317 658 c-80 -21 -145 -116 -130 -192 13 -70 56 -103 186 -146 79
-26 127 -62 127 -95 0 -94 -117 -136 -222 -80 -59 31 -72 31 -92 0 -21 -32
-16 -39 47 -72 44 -23 65 -27 137 -28 73 0 91 4 130 25 73 41 110 116 96 194
-10 52 -52 89 -136 120 -128 48 -160 64 -170 91 -33 88 94 140 212 88 l48 -22
21 27 21 27 -29 22 c-56 46 -161 63 -246 41z"/>
</g>
</svg>
